<?xml version="1.0" encoding="utf-8" standalone="no"?>
<!DOCTYPE svg PUBLIC "-//W3C//DTD SVG 1.1//EN"
  "http://www.w3.org/Graphics/SVG/1.1/DTD/svg11.dtd">
<svg xmlns:xlink="http://www.w3.org/1999/xlink" width="391.842188pt" height="365.772304pt" viewBox="0 0 391.842188 365.772304" xmlns="http://www.w3.org/2000/svg" version="1.1">
 <metadata>
  <rdf:RDF xmlns:dc="http://purl.org/dc/elements/1.1/" xmlns:cc="http://creativecommons.org/ns#" xmlns:rdf="http://www.w3.org/1999/02/22-rdf-syntax-ns#">
   <cc:Work>
    <dc:type rdf:resource="http://purl.org/dc/dcmitype/StillImage"/>
    <dc:date>2026-03-28T07:46:08.896090</dc:date>
    <dc:format>image/svg+xml</dc:format>
    <dc:creator>
     <cc:Agent>
      <dc:title>Matplotlib v3.10.8, https://matplotlib.org/</dc:title>
     </cc:Agent>
    </dc:creator>
   </cc:Work>
  </rdf:RDF>
 </metadata>
 <defs>
  <style type="text/css">*{stroke-linejoin: round; stroke-linecap: butt}</style>
 </defs>
 <g id="figure_1">
  <g id="patch_1">
   <path d="M 0 365.772304 
L 391.842188 365.772304 
L 391.842188 0 
L 0 0 
z
" style="fill: #ffffff"/>
  </g>
  <g id="axes_1">
   <g id="patch_2">
    <path d="M 49.842188 289.949812 
L 384.642188 289.949812 
L 384.642188 23.837812 
L 49.842188 23.837812 
z
" style="fill: #ffffff"/>
   </g>
   <g id="matplotlib.axis_1">
    <g id="xtick_1">
     <g id="line2d_1">
      <path d="M 217.242188 289.949812 
L 217.242188 23.837812 
" clip-path="url(#paeaf78d853)" style="fill: none; stroke: #d6d9e0; stroke-width: 0.7; stroke-linecap: square"/>
     </g>
     <g id="line2d_2">
      <defs>
       <path id="mc3dd430878" d="M 0 0 
L 0 3.5 
" style="stroke: #374151; stroke-width: 0.8"/>
      </defs>
      <g>
       <use xlink:href="#mc3dd430878" x="217.242188" y="289.949812" style="fill: #374151; stroke: #374151; stroke-width: 0.8"/>
      </g>
     </g>
     <g id="text_1">
      <!-- iPhone 14 unknown -->
      <g style="fill: #374151" transform="translate(114.878257 341.776672) rotate(-20) scale(0.11 -0.11)">
       <defs>
        <path id="DejaVuSans-69" d="M 603 3500 
L 1178 3500 
L 1178 0 
L 603 0 
L 603 3500 
z
M 603 4863 
L 1178 4863 
L 1178 4134 
L 603 4134 
L 603 4863 
z
" transform="scale(0.015625)"/>
        <path id="DejaVuSans-50" d="M 1259 4147 
L 1259 2394 
L 2053 2394 
Q 2494 2394 2734 2622 
Q 2975 2850 2975 3272 
Q 2975 3691 2734 3919 
Q 2494 4147 2053 4147 
L 1259 4147 
z
M 628 4666 
L 2053 4666 
Q 2838 4666 3239 4311 
Q 3641 3956 3641 3272 
Q 3641 2581 3239 2228 
Q 2838 1875 2053 1875 
L 1259 1875 
L 1259 0 
L 628 0 
L 628 4666 
z
" transform="scale(0.015625)"/>
        <path id="DejaVuSans-68" d="M 3513 2113 
L 3513 0 
L 2938 0 
L 2938 2094 
Q 2938 2591 2744 2837 
Q 2550 3084 2163 3084 
Q 1697 3084 1428 2787 
Q 1159 2491 1159 1978 
L 1159 0 
L 581 0 
L 581 4863 
L 1159 4863 
L 1159 2956 
Q 1366 3272 1645 3428 
Q 1925 3584 2291 3584 
Q 2894 3584 3203 3211 
Q 3513 2838 3513 2113 
z
" transform="scale(0.015625)"/>
        <path id="DejaVuSans-6f" d="M 1959 3097 
Q 1497 3097 1228 2736 
Q 959 2375 959 1747 
Q 959 1119 1226 758 
Q 1494 397 1959 397 
Q 2419 397 2687 759 
Q 2956 1122 2956 1747 
Q 2956 2369 2687 2733 
Q 2419 3097 1959 3097 
z
M 1959 3584 
Q 2709 3584 3137 3096 
Q 3566 2609 3566 1747 
Q 3566 888 3137 398 
Q 2709 -91 1959 -91 
Q 1206 -91 779 398 
Q 353 888 353 1747 
Q 353 2609 779 3096 
Q 1206 3584 1959 3584 
z
" transform="scale(0.015625)"/>
        <path id="DejaVuSans-6e" d="M 3513 2113 
L 3513 0 
L 2938 0 
L 2938 2094 
Q 2938 2591 2744 2837 
Q 2550 3084 2163 3084 
Q 1697 3084 1428 2787 
Q 1159 2491 1159 1978 
L 1159 0 
L 581 0 
L 581 3500 
L 1159 3500 
L 1159 2956 
Q 1366 3272 1645 3428 
Q 1925 3584 2291 3584 
Q 2894 3584 3203 3211 
Q 3513 2838 3513 2113 
z
" transform="scale(0.015625)"/>
        <path id="DejaVuSans-65" d="M 3597 1894 
L 3597 1613 
L 953 1613 
Q 991 1019 1311 708 
Q 1631 397 2203 397 
Q 2534 397 2845 478 
Q 3156 559 3463 722 
L 3463 178 
Q 3153 47 2828 -22 
Q 2503 -91 2169 -91 
Q 1331 -91 842 396 
Q 353 884 353 1716 
Q 353 2575 817 3079 
Q 1281 3584 2069 3584 
Q 2775 3584 3186 3129 
Q 3597 2675 3597 1894 
z
M 3022 2063 
Q 3016 2534 2758 2815 
Q 2500 3097 2075 3097 
Q 1594 3097 1305 2825 
Q 1016 2553 972 2059 
L 3022 2063 
z
" transform="scale(0.015625)"/>
        <path id="DejaVuSans-20" transform="scale(0.015625)"/>
        <path id="DejaVuSans-31" d="M 794 531 
L 1825 531 
L 1825 4091 
L 703 3866 
L 703 4441 
L 1819 4666 
L 2450 4666 
L 2450 531 
L 3481 531 
L 3481 0 
L 794 0 
L 794 531 
z
" transform="scale(0.015625)"/>
        <path id="DejaVuSans-34" d="M 2419 4116 
L 825 1625 
L 2419 1625 
L 2419 4116 
z
M 2253 4666 
L 3047 4666 
L 3047 1625 
L 3713 1625 
L 3713 1100 
L 3047 1100 
L 3047 0 
L 2419 0 
L 2419 1100 
L 313 1100 
L 313 1709 
L 2253 4666 
z
" transform="scale(0.015625)"/>
        <path id="DejaVuSans-75" d="M 544 1381 
L 544 3500 
L 1119 3500 
L 1119 1403 
Q 1119 906 1312 657 
Q 1506 409 1894 409 
Q 2359 409 2629 706 
Q 2900 1003 2900 1516 
L 2900 3500 
L 3475 3500 
L 3475 0 
L 2900 0 
L 2900 538 
Q 2691 219 2414 64 
Q 2138 -91 1772 -91 
Q 1169 -91 856 284 
Q 544 659 544 1381 
z
M 1991 3584 
L 1991 3584 
z
" transform="scale(0.015625)"/>
        <path id="DejaVuSans-6b" d="M 581 4863 
L 1159 4863 
L 1159 1991 
L 2875 3500 
L 3609 3500 
L 1753 1863 
L 3688 0 
L 2938 0 
L 1159 1709 
L 1159 0 
L 581 0 
L 581 4863 
z
" transform="scale(0.015625)"/>
        <path id="DejaVuSans-77" d="M 269 3500 
L 844 3500 
L 1563 769 
L 2278 3500 
L 2956 3500 
L 3675 769 
L 4391 3500 
L 4966 3500 
L 4050 0 
L 3372 0 
L 2619 2869 
L 1863 0 
L 1184 0 
L 269 3500 
z
" transform="scale(0.015625)"/>
       </defs>
       <use xlink:href="#DejaVuSans-69"/>
       <use xlink:href="#DejaVuSans-50" transform="translate(27.783203 0)"/>
       <use xlink:href="#DejaVuSans-68" transform="translate(88.085938 0)"/>
       <use xlink:href="#DejaVuSans-6f" transform="translate(151.464844 0)"/>
       <use xlink:href="#DejaVuSans-6e" transform="translate(212.646484 0)"/>
       <use xlink:href="#DejaVuSans-65" transform="translate(276.025391 0)"/>
       <use xlink:href="#DejaVuSans-20" transform="translate(337.548828 0)"/>
       <use xlink:href="#DejaVuSans-31" transform="translate(369.335938 0)"/>
       <use xlink:href="#DejaVuSans-34" transform="translate(432.958984 0)"/>
       <use xlink:href="#DejaVuSans-20" transform="translate(496.582031 0)"/>
       <use xlink:href="#DejaVuSans-75" transform="translate(528.369141 0)"/>
       <use xlink:href="#DejaVuSans-6e" transform="translate(591.748047 0)"/>
       <use xlink:href="#DejaVuSans-6b" transform="translate(655.126953 0)"/>
       <use xlink:href="#DejaVuSans-6e" transform="translate(713.037109 0)"/>
       <use xlink:href="#DejaVuSans-6f" transform="translate(776.416016 0)"/>
       <use xlink:href="#DejaVuSans-77" transform="translate(837.597656 0)"/>
       <use xlink:href="#DejaVuSans-6e" transform="translate(919.384766 0)"/>
      </g>
     </g>
    </g>
    <g id="text_2">
     <!-- Device -->
     <g style="fill: #2a2f3a" transform="translate(198.431328 356.284647) scale(0.11 -0.11)">
      <defs>
       <path id="DejaVuSans-44" d="M 1259 4147 
L 1259 519 
L 2022 519 
Q 2988 519 3436 956 
Q 3884 1394 3884 2338 
Q 3884 3275 3436 3711 
Q 2988 4147 2022 4147 
L 1259 4147 
z
M 628 4666 
L 1925 4666 
Q 3281 4666 3915 4102 
Q 4550 3538 4550 2338 
Q 4550 1131 3912 565 
Q 3275 0 1925 0 
L 628 0 
L 628 4666 
z
" transform="scale(0.015625)"/>
       <path id="DejaVuSans-76" d="M 191 3500 
L 800 3500 
L 1894 563 
L 2988 3500 
L 3597 3500 
L 2284 0 
L 1503 0 
L 191 3500 
z
" transform="scale(0.015625)"/>
       <path id="DejaVuSans-63" d="M 3122 3366 
L 3122 2828 
Q 2878 2963 2633 3030 
Q 2388 3097 2138 3097 
Q 1578 3097 1268 2742 
Q 959 2388 959 1747 
Q 959 1106 1268 751 
Q 1578 397 2138 397 
Q 2388 397 2633 464 
Q 2878 531 3122 666 
L 3122 134 
Q 2881 22 2623 -34 
Q 2366 -91 2075 -91 
Q 1284 -91 818 406 
Q 353 903 353 1747 
Q 353 2603 823 3093 
Q 1294 3584 2113 3584 
Q 2378 3584 2631 3529 
Q 2884 3475 3122 3366 
z
" transform="scale(0.015625)"/>
      </defs>
      <use xlink:href="#DejaVuSans-44"/>
      <use xlink:href="#DejaVuSans-65" transform="translate(77.001953 0)"/>
      <use xlink:href="#DejaVuSans-76" transform="translate(138.525391 0)"/>
      <use xlink:href="#DejaVuSans-69" transform="translate(197.705078 0)"/>
      <use xlink:href="#DejaVuSans-63" transform="translate(225.488281 0)"/>
      <use xlink:href="#DejaVuSans-65" transform="translate(280.46875 0)"/>
     </g>
    </g>
   </g>
   <g id="matplotlib.axis_2">
    <g id="ytick_1">
     <g id="line2d_3">
      <path d="M 49.842188 266.193176 
L 384.642188 266.193176 
" clip-path="url(#paeaf78d853)" style="fill: none; stroke: #d6d9e0; stroke-width: 0.7; stroke-linecap: square"/>
     </g>
     <g id="line2d_4">
      <defs>
       <path id="mb676021819" d="M 0 0 
L -3.5 0 
" style="stroke: #374151; stroke-width: 0.8"/>
      </defs>
      <g>
       <use xlink:href="#mb676021819" x="49.842188" y="266.193176" style="fill: #374151; stroke: #374151; stroke-width: 0.8"/>
      </g>
     </g>
     <g id="text_3">
      <!-- 280 -->
      <g style="fill: #374151" transform="translate(21.845938 270.372317) scale(0.11 -0.11)">
       <defs>
        <path id="DejaVuSans-32" d="M 1228 531 
L 3431 531 
L 3431 0 
L 469 0 
L 469 531 
Q 828 903 1448 1529 
Q 2069 2156 2228 2338 
Q 2531 2678 2651 2914 
Q 2772 3150 2772 3378 
Q 2772 3750 2511 3984 
Q 2250 4219 1831 4219 
Q 1534 4219 1204 4116 
Q 875 4013 500 3803 
L 500 4441 
Q 881 4594 1212 4672 
Q 1544 4750 1819 4750 
Q 2544 4750 2975 4387 
Q 3406 4025 3406 3419 
Q 3406 3131 3298 2873 
Q 3191 2616 2906 2266 
Q 2828 2175 2409 1742 
Q 1991 1309 1228 531 
z
" transform="scale(0.015625)"/>
        <path id="DejaVuSans-38" d="M 2034 2216 
Q 1584 2216 1326 1975 
Q 1069 1734 1069 1313 
Q 1069 891 1326 650 
Q 1584 409 2034 409 
Q 2484 409 2743 651 
Q 3003 894 3003 1313 
Q 3003 1734 2745 1975 
Q 2488 2216 2034 2216 
z
M 1403 2484 
Q 997 2584 770 2862 
Q 544 3141 544 3541 
Q 544 4100 942 4425 
Q 1341 4750 2034 4750 
Q 2731 4750 3128 4425 
Q 3525 4100 3525 3541 
Q 3525 3141 3298 2862 
Q 3072 2584 2669 2484 
Q 3125 2378 3379 2068 
Q 3634 1759 3634 1313 
Q 3634 634 3220 271 
Q 2806 -91 2034 -91 
Q 1263 -91 848 271 
Q 434 634 434 1313 
Q 434 1759 690 2068 
Q 947 2378 1403 2484 
z
M 1172 3481 
Q 1172 3119 1398 2916 
Q 1625 2713 2034 2713 
Q 2441 2713 2670 2916 
Q 2900 3119 2900 3481 
Q 2900 3844 2670 4047 
Q 2441 4250 2034 4250 
Q 1625 4250 1398 4047 
Q 1172 3844 1172 3481 
z
" transform="scale(0.015625)"/>
        <path id="DejaVuSans-30" d="M 2034 4250 
Q 1547 4250 1301 3770 
Q 1056 3291 1056 2328 
Q 1056 1369 1301 889 
Q 1547 409 2034 409 
Q 2525 409 2770 889 
Q 3016 1369 3016 2328 
Q 3016 3291 2770 3770 
Q 2525 4250 2034 4250 
z
M 2034 4750 
Q 2819 4750 3233 4129 
Q 3647 3509 3647 2328 
Q 3647 1150 3233 529 
Q 2819 -91 2034 -91 
Q 1250 -91 836 529 
Q 422 1150 422 2328 
Q 422 3509 836 4129 
Q 1250 4750 2034 4750 
z
" transform="scale(0.015625)"/>
       </defs>
       <use xlink:href="#DejaVuSans-32"/>
       <use xlink:href="#DejaVuSans-38" transform="translate(63.623047 0)"/>
       <use xlink:href="#DejaVuSans-30" transform="translate(127.246094 0)"/>
      </g>
     </g>
    </g>
    <g id="ytick_2">
     <g id="line2d_5">
      <path d="M 49.842188 233.833388 
L 384.642188 233.833388 
" clip-path="url(#paeaf78d853)" style="fill: none; stroke: #d6d9e0; stroke-width: 0.7; stroke-linecap: square"/>
     </g>
     <g id="line2d_6">
      <g>
       <use xlink:href="#mb676021819" x="49.842188" y="233.833388" style="fill: #374151; stroke: #374151; stroke-width: 0.8"/>
      </g>
     </g>
     <g id="text_4">
      <!-- 290 -->
      <g style="fill: #374151" transform="translate(21.845938 238.012529) scale(0.11 -0.11)">
       <defs>
        <path id="DejaVuSans-39" d="M 703 97 
L 703 672 
Q 941 559 1184 500 
Q 1428 441 1663 441 
Q 2288 441 2617 861 
Q 2947 1281 2994 2138 
Q 2813 1869 2534 1725 
Q 2256 1581 1919 1581 
Q 1219 1581 811 2004 
Q 403 2428 403 3163 
Q 403 3881 828 4315 
Q 1253 4750 1959 4750 
Q 2769 4750 3195 4129 
Q 3622 3509 3622 2328 
Q 3622 1225 3098 567 
Q 2575 -91 1691 -91 
Q 1453 -91 1209 -44 
Q 966 3 703 97 
z
M 1959 2075 
Q 2384 2075 2632 2365 
Q 2881 2656 2881 3163 
Q 2881 3666 2632 3958 
Q 2384 4250 1959 4250 
Q 1534 4250 1286 3958 
Q 1038 3666 1038 3163 
Q 1038 2656 1286 2365 
Q 1534 2075 1959 2075 
z
" transform="scale(0.015625)"/>
       </defs>
       <use xlink:href="#DejaVuSans-32"/>
       <use xlink:href="#DejaVuSans-39" transform="translate(63.623047 0)"/>
       <use xlink:href="#DejaVuSans-30" transform="translate(127.246094 0)"/>
      </g>
     </g>
    </g>
    <g id="ytick_3">
     <g id="line2d_7">
      <path d="M 49.842188 201.4736 
L 384.642188 201.4736 
" clip-path="url(#paeaf78d853)" style="fill: none; stroke: #d6d9e0; stroke-width: 0.7; stroke-linecap: square"/>
     </g>
     <g id="line2d_8">
      <g>
       <use xlink:href="#mb676021819" x="49.842188" y="201.4736" style="fill: #374151; stroke: #374151; stroke-width: 0.8"/>
      </g>
     </g>
     <g id="text_5">
      <!-- 300 -->
      <g style="fill: #374151" transform="translate(21.845938 205.652741) scale(0.11 -0.11)">
       <defs>
        <path id="DejaVuSans-33" d="M 2597 2516 
Q 3050 2419 3304 2112 
Q 3559 1806 3559 1356 
Q 3559 666 3084 287 
Q 2609 -91 1734 -91 
Q 1441 -91 1130 -33 
Q 819 25 488 141 
L 488 750 
Q 750 597 1062 519 
Q 1375 441 1716 441 
Q 2309 441 2620 675 
Q 2931 909 2931 1356 
Q 2931 1769 2642 2001 
Q 2353 2234 1838 2234 
L 1294 2234 
L 1294 2753 
L 1863 2753 
Q 2328 2753 2575 2939 
Q 2822 3125 2822 3475 
Q 2822 3834 2567 4026 
Q 2313 4219 1838 4219 
Q 1578 4219 1281 4162 
Q 984 4106 628 3988 
L 628 4550 
Q 988 4650 1302 4700 
Q 1616 4750 1894 4750 
Q 2613 4750 3031 4423 
Q 3450 4097 3450 3541 
Q 3450 3153 3228 2886 
Q 3006 2619 2597 2516 
z
" transform="scale(0.015625)"/>
       </defs>
       <use xlink:href="#DejaVuSans-33"/>
       <use xlink:href="#DejaVuSans-30" transform="translate(63.623047 0)"/>
       <use xlink:href="#DejaVuSans-30" transform="translate(127.246094 0)"/>
      </g>
     </g>
    </g>
    <g id="ytick_4">
     <g id="line2d_9">
      <path d="M 49.842188 169.113812 
L 384.642188 169.113812 
" clip-path="url(#paeaf78d853)" style="fill: none; stroke: #d6d9e0; stroke-width: 0.7; stroke-linecap: square"/>
     </g>
     <g id="line2d_10">
      <g>
       <use xlink:href="#mb676021819" x="49.842188" y="169.113812" style="fill: #374151; stroke: #374151; stroke-width: 0.8"/>
      </g>
     </g>
     <g id="text_6">
      <!-- 310 -->
      <g style="fill: #374151" transform="translate(21.845938 173.292952) scale(0.11 -0.11)">
       <use xlink:href="#DejaVuSans-33"/>
       <use xlink:href="#DejaVuSans-31" transform="translate(63.623047 0)"/>
       <use xlink:href="#DejaVuSans-30" transform="translate(127.246094 0)"/>
      </g>
     </g>
    </g>
    <g id="ytick_5">
     <g id="line2d_11">
      <path d="M 49.842188 136.754024 
L 384.642188 136.754024 
" clip-path="url(#paeaf78d853)" style="fill: none; stroke: #d6d9e0; stroke-width: 0.7; stroke-linecap: square"/>
     </g>
     <g id="line2d_12">
      <g>
       <use xlink:href="#mb676021819" x="49.842188" y="136.754024" style="fill: #374151; stroke: #374151; stroke-width: 0.8"/>
      </g>
     </g>
     <g id="text_7">
      <!-- 320 -->
      <g style="fill: #374151" transform="translate(21.845938 140.933164) scale(0.11 -0.11)">
       <use xlink:href="#DejaVuSans-33"/>
       <use xlink:href="#DejaVuSans-32" transform="translate(63.623047 0)"/>
       <use xlink:href="#DejaVuSans-30" transform="translate(127.246094 0)"/>
      </g>
     </g>
    </g>
    <g id="ytick_6">
     <g id="line2d_13">
      <path d="M 49.842188 104.394236 
L 384.642188 104.394236 
" clip-path="url(#paeaf78d853)" style="fill: none; stroke: #d6d9e0; stroke-width: 0.7; stroke-linecap: square"/>
     </g>
     <g id="line2d_14">
      <g>
       <use xlink:href="#mb676021819" x="49.842188" y="104.394236" style="fill: #374151; stroke: #374151; stroke-width: 0.8"/>
      </g>
     </g>
     <g id="text_8">
      <!-- 330 -->
      <g style="fill: #374151" transform="translate(21.845938 108.573376) scale(0.11 -0.11)">
       <use xlink:href="#DejaVuSans-33"/>
       <use xlink:href="#DejaVuSans-33" transform="translate(63.623047 0)"/>
       <use xlink:href="#DejaVuSans-30" transform="translate(127.246094 0)"/>
      </g>
     </g>
    </g>
    <g id="ytick_7">
     <g id="line2d_15">
      <path d="M 49.842188 72.034447 
L 384.642188 72.034447 
" clip-path="url(#paeaf78d853)" style="fill: none; stroke: #d6d9e0; stroke-width: 0.7; stroke-linecap: square"/>
     </g>
     <g id="line2d_16">
      <g>
       <use xlink:href="#mb676021819" x="49.842188" y="72.034447" style="fill: #374151; stroke: #374151; stroke-width: 0.8"/>
      </g>
     </g>
     <g id="text_9">
      <!-- 340 -->
      <g style="fill: #374151" transform="translate(21.845938 76.213588) scale(0.11 -0.11)">
       <use xlink:href="#DejaVuSans-33"/>
       <use xlink:href="#DejaVuSans-34" transform="translate(63.623047 0)"/>
       <use xlink:href="#DejaVuSans-30" transform="translate(127.246094 0)"/>
      </g>
     </g>
    </g>
    <g id="ytick_8">
     <g id="line2d_17">
      <path d="M 49.842188 39.674659 
L 384.642188 39.674659 
" clip-path="url(#paeaf78d853)" style="fill: none; stroke: #d6d9e0; stroke-width: 0.7; stroke-linecap: square"/>
     </g>
     <g id="line2d_18">
      <g>
       <use xlink:href="#mb676021819" x="49.842188" y="39.674659" style="fill: #374151; stroke: #374151; stroke-width: 0.8"/>
      </g>
     </g>
     <g id="text_10">
      <!-- 350 -->
      <g style="fill: #374151" transform="translate(21.845938 43.8538) scale(0.11 -0.11)">
       <defs>
        <path id="DejaVuSans-35" d="M 691 4666 
L 3169 4666 
L 3169 4134 
L 1269 4134 
L 1269 2991 
Q 1406 3038 1543 3061 
Q 1681 3084 1819 3084 
Q 2600 3084 3056 2656 
Q 3513 2228 3513 1497 
Q 3513 744 3044 326 
Q 2575 -91 1722 -91 
Q 1428 -91 1123 -41 
Q 819 9 494 109 
L 494 744 
Q 775 591 1075 516 
Q 1375 441 1709 441 
Q 2250 441 2565 725 
Q 2881 1009 2881 1497 
Q 2881 1984 2565 2268 
Q 2250 2553 1709 2553 
Q 1456 2553 1204 2497 
Q 953 2441 691 2322 
L 691 4666 
z
" transform="scale(0.015625)"/>
       </defs>
       <use xlink:href="#DejaVuSans-33"/>
       <use xlink:href="#DejaVuSans-35" transform="translate(63.623047 0)"/>
       <use xlink:href="#DejaVuSans-30" transform="translate(127.246094 0)"/>
      </g>
     </g>
    </g>
    <g id="text_11">
     <!-- Runtime (ms) -->
     <g style="fill: #2a2f3a" transform="translate(15.558281 194.127094) rotate(-90) scale(0.11 -0.11)">
      <defs>
       <path id="DejaVuSans-52" d="M 2841 2188 
Q 3044 2119 3236 1894 
Q 3428 1669 3622 1275 
L 4263 0 
L 3584 0 
L 2988 1197 
Q 2756 1666 2539 1819 
Q 2322 1972 1947 1972 
L 1259 1972 
L 1259 0 
L 628 0 
L 628 4666 
L 2053 4666 
Q 2853 4666 3247 4331 
Q 3641 3997 3641 3322 
Q 3641 2881 3436 2590 
Q 3231 2300 2841 2188 
z
M 1259 4147 
L 1259 2491 
L 2053 2491 
Q 2509 2491 2742 2702 
Q 2975 2913 2975 3322 
Q 2975 3731 2742 3939 
Q 2509 4147 2053 4147 
L 1259 4147 
z
" transform="scale(0.015625)"/>
       <path id="DejaVuSans-74" d="M 1172 4494 
L 1172 3500 
L 2356 3500 
L 2356 3053 
L 1172 3053 
L 1172 1153 
Q 1172 725 1289 603 
Q 1406 481 1766 481 
L 2356 481 
L 2356 0 
L 1766 0 
Q 1100 0 847 248 
Q 594 497 594 1153 
L 594 3053 
L 172 3053 
L 172 3500 
L 594 3500 
L 594 4494 
L 1172 4494 
z
" transform="scale(0.015625)"/>
       <path id="DejaVuSans-6d" d="M 3328 2828 
Q 3544 3216 3844 3400 
Q 4144 3584 4550 3584 
Q 5097 3584 5394 3201 
Q 5691 2819 5691 2113 
L 5691 0 
L 5113 0 
L 5113 2094 
Q 5113 2597 4934 2840 
Q 4756 3084 4391 3084 
Q 3944 3084 3684 2787 
Q 3425 2491 3425 1978 
L 3425 0 
L 2847 0 
L 2847 2094 
Q 2847 2600 2669 2842 
Q 2491 3084 2119 3084 
Q 1678 3084 1418 2786 
Q 1159 2488 1159 1978 
L 1159 0 
L 581 0 
L 581 3500 
L 1159 3500 
L 1159 2956 
Q 1356 3278 1631 3431 
Q 1906 3584 2284 3584 
Q 2666 3584 2933 3390 
Q 3200 3197 3328 2828 
z
" transform="scale(0.015625)"/>
       <path id="DejaVuSans-28" d="M 1984 4856 
Q 1566 4138 1362 3434 
Q 1159 2731 1159 2009 
Q 1159 1288 1364 580 
Q 1569 -128 1984 -844 
L 1484 -844 
Q 1016 -109 783 600 
Q 550 1309 550 2009 
Q 550 2706 781 3412 
Q 1013 4119 1484 4856 
L 1984 4856 
z
" transform="scale(0.015625)"/>
       <path id="DejaVuSans-73" d="M 2834 3397 
L 2834 2853 
Q 2591 2978 2328 3040 
Q 2066 3103 1784 3103 
Q 1356 3103 1142 2972 
Q 928 2841 928 2578 
Q 928 2378 1081 2264 
Q 1234 2150 1697 2047 
L 1894 2003 
Q 2506 1872 2764 1633 
Q 3022 1394 3022 966 
Q 3022 478 2636 193 
Q 2250 -91 1575 -91 
Q 1294 -91 989 -36 
Q 684 19 347 128 
L 347 722 
Q 666 556 975 473 
Q 1284 391 1588 391 
Q 1994 391 2212 530 
Q 2431 669 2431 922 
Q 2431 1156 2273 1281 
Q 2116 1406 1581 1522 
L 1381 1569 
Q 847 1681 609 1914 
Q 372 2147 372 2553 
Q 372 3047 722 3315 
Q 1072 3584 1716 3584 
Q 2034 3584 2315 3537 
Q 2597 3491 2834 3397 
z
" transform="scale(0.015625)"/>
       <path id="DejaVuSans-29" d="M 513 4856 
L 1013 4856 
Q 1481 4119 1714 3412 
Q 1947 2706 1947 2009 
Q 1947 1309 1714 600 
Q 1481 -109 1013 -844 
L 513 -844 
Q 928 -128 1133 580 
Q 1338 1288 1338 2009 
Q 1338 2731 1133 3434 
Q 928 4138 513 4856 
z
" transform="scale(0.015625)"/>
      </defs>
      <use xlink:href="#DejaVuSans-52"/>
      <use xlink:href="#DejaVuSans-75" transform="translate(64.982422 0)"/>
      <use xlink:href="#DejaVuSans-6e" transform="translate(128.361328 0)"/>
      <use xlink:href="#DejaVuSans-74" transform="translate(191.740234 0)"/>
      <use xlink:href="#DejaVuSans-69" transform="translate(230.949219 0)"/>
      <use xlink:href="#DejaVuSans-6d" transform="translate(258.732422 0)"/>
      <use xlink:href="#DejaVuSans-65" transform="translate(356.144531 0)"/>
      <use xlink:href="#DejaVuSans-20" transform="translate(417.667969 0)"/>
      <use xlink:href="#DejaVuSans-28" transform="translate(449.455078 0)"/>
      <use xlink:href="#DejaVuSans-6d" transform="translate(488.46875 0)"/>
      <use xlink:href="#DejaVuSans-73" transform="translate(585.880859 0)"/>
      <use xlink:href="#DejaVuSans-29" transform="translate(637.980469 0)"/>
     </g>
    </g>
   </g>
   <g id="PathCollection_1">
    <defs>
     <path id="C0_0_37007ea9cb" d="M 0 2.12132 
C 0.562581 2.12132 1.102195 1.897805 1.5 1.5 
C 1.897805 1.102195 2.12132 0.562581 2.12132 -0 
C 2.12132 -0.562581 1.897805 -1.102195 1.5 -1.5 
C 1.102195 -1.897805 0.562581 -2.12132 0 -2.12132 
C -0.562581 -2.12132 -1.102195 -1.897805 -1.5 -1.5 
C -1.897805 -1.102195 -2.12132 -0.562581 -2.12132 0 
C -2.12132 0.562581 -1.897805 1.102195 -1.5 1.5 
C -1.102195 1.897805 -0.562581 2.12132 0 2.12132 
z
"/>
    </defs>
    <g clip-path="url(#paeaf78d853)">
     <use xlink:href="#C0_0_37007ea9cb" x="215.379888" y="271.597261" style="fill: #1f77b4; fill-opacity: 0.8"/>
    </g>
    <g clip-path="url(#paeaf78d853)">
     <use xlink:href="#C0_0_37007ea9cb" x="229.174697" y="271.299146" style="fill: #1f77b4; fill-opacity: 0.8"/>
    </g>
    <g clip-path="url(#paeaf78d853)">
     <use xlink:href="#C0_0_37007ea9cb" x="201.58508" y="270.795816" style="fill: #1f77b4; fill-opacity: 0.8"/>
    </g>
    <g clip-path="url(#paeaf78d853)">
     <use xlink:href="#C0_0_37007ea9cb" x="242.969505" y="269.195491" style="fill: #1f77b4; fill-opacity: 0.8"/>
    </g>
    <g clip-path="url(#paeaf78d853)">
     <use xlink:href="#C0_0_37007ea9cb" x="187.790272" y="267.572244" style="fill: #1f77b4; fill-opacity: 0.8"/>
    </g>
    <g clip-path="url(#paeaf78d853)">
     <use xlink:href="#C0_0_37007ea9cb" x="256.764314" y="260.416685" style="fill: #1f77b4; fill-opacity: 0.8"/>
    </g>
    <g clip-path="url(#paeaf78d853)">
     <use xlink:href="#C0_0_37007ea9cb" x="173.995463" y="258.666694" style="fill: #1f77b4; fill-opacity: 0.8"/>
    </g>
    <g clip-path="url(#paeaf78d853)">
     <use xlink:href="#C0_0_37007ea9cb" x="270.559122" y="258.051182" style="fill: #1f77b4; fill-opacity: 0.8"/>
    </g>
    <g clip-path="url(#paeaf78d853)">
     <use xlink:href="#C0_0_37007ea9cb" x="160.200655" y="257.657606" style="fill: #1f77b4; fill-opacity: 0.8"/>
    </g>
    <g clip-path="url(#paeaf78d853)">
     <use xlink:href="#C0_0_37007ea9cb" x="215.379888" y="248.018838" style="fill: #1f77b4; fill-opacity: 0.8"/>
    </g>
    <g clip-path="url(#paeaf78d853)">
     <use xlink:href="#C0_0_37007ea9cb" x="229.174697" y="247.378791" style="fill: #1f77b4; fill-opacity: 0.8"/>
    </g>
    <g clip-path="url(#paeaf78d853)">
     <use xlink:href="#C0_0_37007ea9cb" x="201.58508" y="247.007731" style="fill: #1f77b4; fill-opacity: 0.8"/>
    </g>
    <g clip-path="url(#paeaf78d853)">
     <use xlink:href="#C0_0_37007ea9cb" x="242.969505" y="246.03586" style="fill: #1f77b4; fill-opacity: 0.8"/>
    </g>
    <g clip-path="url(#paeaf78d853)">
     <use xlink:href="#C0_0_37007ea9cb" x="187.790272" y="244.904209" style="fill: #1f77b4; fill-opacity: 0.8"/>
    </g>
    <g clip-path="url(#paeaf78d853)">
     <use xlink:href="#C0_0_37007ea9cb" x="280.905228" y="243.801685" style="fill: #1f77b4; fill-opacity: 0.8"/>
    </g>
    <g clip-path="url(#paeaf78d853)">
     <use xlink:href="#C0_0_37007ea9cb" x="149.854548" y="243.243074" style="fill: #1f77b4; fill-opacity: 0.8"/>
    </g>
    <g clip-path="url(#paeaf78d853)">
     <use xlink:href="#C0_0_37007ea9cb" x="294.700037" y="243.183212" style="fill: #1f77b4; fill-opacity: 0.8"/>
    </g>
    <g clip-path="url(#paeaf78d853)">
     <use xlink:href="#C0_0_37007ea9cb" x="260.213016" y="242.54896" style="fill: #1f77b4; fill-opacity: 0.8"/>
    </g>
    <g clip-path="url(#paeaf78d853)">
     <use xlink:href="#C0_0_37007ea9cb" x="173.995463" y="240.240222" style="fill: #1f77b4; fill-opacity: 0.8"/>
    </g>
    <g clip-path="url(#paeaf78d853)">
     <use xlink:href="#C0_0_37007ea9cb" x="136.05974" y="239.775859" style="fill: #1f77b4; fill-opacity: 0.8"/>
    </g>
    <g clip-path="url(#paeaf78d853)">
     <use xlink:href="#C0_0_37007ea9cb" x="308.494845" y="239.512799" style="fill: #1f77b4; fill-opacity: 0.8"/>
    </g>
    <g clip-path="url(#paeaf78d853)">
     <use xlink:href="#C0_0_37007ea9cb" x="122.264932" y="239.068257" style="fill: #1f77b4; fill-opacity: 0.8"/>
    </g>
    <g clip-path="url(#paeaf78d853)">
     <use xlink:href="#C0_0_37007ea9cb" x="322.289654" y="235.584862" style="fill: #1f77b4; fill-opacity: 0.8"/>
    </g>
    <g clip-path="url(#paeaf78d853)">
     <use xlink:href="#C0_0_37007ea9cb" x="108.470123" y="235.317356" style="fill: #1f77b4; fill-opacity: 0.8"/>
    </g>
    <g clip-path="url(#paeaf78d853)">
     <use xlink:href="#C0_0_37007ea9cb" x="336.084462" y="234.007322" style="fill: #1f77b4; fill-opacity: 0.8"/>
    </g>
    <g clip-path="url(#paeaf78d853)">
     <use xlink:href="#C0_0_37007ea9cb" x="94.675315" y="232.821067" style="fill: #1f77b4; fill-opacity: 0.8"/>
    </g>
    <g clip-path="url(#paeaf78d853)">
     <use xlink:href="#C0_0_37007ea9cb" x="349.87927" y="232.103353" style="fill: #1f77b4; fill-opacity: 0.8"/>
    </g>
    <g clip-path="url(#paeaf78d853)">
     <use xlink:href="#C0_0_37007ea9cb" x="80.880506" y="231.805238" style="fill: #1f77b4; fill-opacity: 0.8"/>
    </g>
    <g clip-path="url(#paeaf78d853)">
     <use xlink:href="#C0_0_37007ea9cb" x="222.277293" y="231.119884" style="fill: #1f77b4; fill-opacity: 0.8"/>
    </g>
    <g clip-path="url(#paeaf78d853)">
     <use xlink:href="#C0_0_37007ea9cb" x="208.482484" y="230.488331" style="fill: #1f77b4; fill-opacity: 0.8"/>
    </g>
    <g clip-path="url(#paeaf78d853)">
     <use xlink:href="#C0_0_37007ea9cb" x="236.072101" y="229.786256" style="fill: #1f77b4; fill-opacity: 0.8"/>
    </g>
    <g clip-path="url(#paeaf78d853)">
     <use xlink:href="#C0_0_37007ea9cb" x="249.866909" y="229.341309" style="fill: #1f77b4; fill-opacity: 0.8"/>
    </g>
    <g clip-path="url(#paeaf78d853)">
     <use xlink:href="#C0_0_37007ea9cb" x="194.687676" y="223.448459" style="fill: #1f77b4; fill-opacity: 0.8"/>
    </g>
    <g clip-path="url(#paeaf78d853)">
     <use xlink:href="#C0_0_37007ea9cb" x="180.892867" y="222.036355" style="fill: #1f77b4; fill-opacity: 0.8"/>
    </g>
    <g clip-path="url(#paeaf78d853)">
     <use xlink:href="#C0_0_37007ea9cb" x="263.661718" y="221.140934" style="fill: #1f77b4; fill-opacity: 0.8"/>
    </g>
    <g clip-path="url(#paeaf78d853)">
     <use xlink:href="#C0_0_37007ea9cb" x="167.098059" y="220.691269" style="fill: #1f77b4; fill-opacity: 0.8"/>
    </g>
    <g clip-path="url(#paeaf78d853)">
     <use xlink:href="#C0_0_37007ea9cb" x="277.456526" y="220.083578" style="fill: #1f77b4; fill-opacity: 0.8"/>
    </g>
    <g clip-path="url(#paeaf78d853)">
     <use xlink:href="#C0_0_37007ea9cb" x="153.303251" y="219.924074" style="fill: #1f77b4; fill-opacity: 0.8"/>
    </g>
    <g clip-path="url(#paeaf78d853)">
     <use xlink:href="#C0_0_37007ea9cb" x="291.251335" y="217.821629" style="fill: #1f77b4; fill-opacity: 0.8"/>
    </g>
    <g clip-path="url(#paeaf78d853)">
     <use xlink:href="#C0_0_37007ea9cb" x="139.508442" y="217.224186" style="fill: #1f77b4; fill-opacity: 0.8"/>
    </g>
    <g clip-path="url(#paeaf78d853)">
     <use xlink:href="#C0_0_37007ea9cb" x="305.046143" y="214.671944" style="fill: #1f77b4; fill-opacity: 0.8"/>
    </g>
    <g clip-path="url(#paeaf78d853)">
     <use xlink:href="#C0_0_37007ea9cb" x="215.379888" y="214.588077" style="fill: #1f77b4; fill-opacity: 0.8"/>
    </g>
    <g clip-path="url(#paeaf78d853)">
     <use xlink:href="#C0_0_37007ea9cb" x="125.713634" y="214.347133" style="fill: #1f77b4; fill-opacity: 0.8"/>
    </g>
    <g clip-path="url(#paeaf78d853)">
     <use xlink:href="#C0_0_37007ea9cb" x="229.174697" y="213.872385" style="fill: #1f77b4; fill-opacity: 0.8"/>
    </g>
    <g clip-path="url(#paeaf78d853)">
     <use xlink:href="#C0_0_37007ea9cb" x="242.969505" y="211.195962" style="fill: #1f77b4; fill-opacity: 0.8"/>
    </g>
    <g clip-path="url(#paeaf78d853)">
     <use xlink:href="#C0_0_37007ea9cb" x="318.840951" y="210.565487" style="fill: #1f77b4; fill-opacity: 0.8"/>
    </g>
    <g clip-path="url(#paeaf78d853)">
     <use xlink:href="#C0_0_37007ea9cb" x="111.918825" y="209.0377" style="fill: #1f77b4; fill-opacity: 0.8"/>
    </g>
    <g clip-path="url(#paeaf78d853)">
     <use xlink:href="#C0_0_37007ea9cb" x="332.63576" y="208.208749" style="fill: #1f77b4; fill-opacity: 0.8"/>
    </g>
    <g clip-path="url(#paeaf78d853)">
     <use xlink:href="#C0_0_37007ea9cb" x="98.124017" y="207.955265" style="fill: #1f77b4; fill-opacity: 0.8"/>
    </g>
    <g clip-path="url(#paeaf78d853)">
     <use xlink:href="#C0_0_37007ea9cb" x="346.430568" y="207.718903" style="fill: #1f77b4; fill-opacity: 0.8"/>
    </g>
    <g clip-path="url(#paeaf78d853)">
     <use xlink:href="#C0_0_37007ea9cb" x="201.58508" y="205.771925" style="fill: #1f77b4; fill-opacity: 0.8"/>
    </g>
    <g clip-path="url(#paeaf78d853)">
     <use xlink:href="#C0_0_37007ea9cb" x="187.790272" y="203.768718" style="fill: #1f77b4; fill-opacity: 0.8"/>
    </g>
    <g clip-path="url(#paeaf78d853)">
     <use xlink:href="#C0_0_37007ea9cb" x="256.764314" y="201.60223" style="fill: #1f77b4; fill-opacity: 0.8"/>
    </g>
    <g clip-path="url(#paeaf78d853)">
     <use xlink:href="#C0_0_37007ea9cb" x="215.379888" y="195.102226" style="fill: #1f77b4; fill-opacity: 0.8"/>
    </g>
    <g clip-path="url(#paeaf78d853)">
     <use xlink:href="#C0_0_37007ea9cb" x="229.174697" y="194.361727" style="fill: #1f77b4; fill-opacity: 0.8"/>
    </g>
    <g clip-path="url(#paeaf78d853)">
     <use xlink:href="#C0_0_37007ea9cb" x="242.969505" y="192.025891" style="fill: #1f77b4; fill-opacity: 0.8"/>
    </g>
    <g clip-path="url(#paeaf78d853)">
     <use xlink:href="#C0_0_37007ea9cb" x="201.58508" y="186.471602" style="fill: #1f77b4; fill-opacity: 0.8"/>
    </g>
    <g clip-path="url(#paeaf78d853)">
     <use xlink:href="#C0_0_37007ea9cb" x="187.790272" y="183.914774" style="fill: #1f77b4; fill-opacity: 0.8"/>
    </g>
    <g clip-path="url(#paeaf78d853)">
     <use xlink:href="#C0_0_37007ea9cb" x="256.764314" y="181.488868" style="fill: #1f77b4; fill-opacity: 0.8"/>
    </g>
    <g clip-path="url(#paeaf78d853)">
     <use xlink:href="#C0_0_37007ea9cb" x="173.995463" y="179.170156" style="fill: #1f77b4; fill-opacity: 0.8"/>
    </g>
    <g clip-path="url(#paeaf78d853)">
     <use xlink:href="#C0_0_37007ea9cb" x="270.559122" y="178.835634" style="fill: #1f77b4; fill-opacity: 0.8"/>
    </g>
    <g clip-path="url(#paeaf78d853)">
     <use xlink:href="#C0_0_37007ea9cb" x="222.277293" y="178.273522" style="fill: #1f77b4; fill-opacity: 0.8"/>
    </g>
    <g clip-path="url(#paeaf78d853)">
     <use xlink:href="#C0_0_37007ea9cb" x="160.200655" y="176.527171" style="fill: #1f77b4; fill-opacity: 0.8"/>
    </g>
    <g clip-path="url(#paeaf78d853)">
     <use xlink:href="#C0_0_37007ea9cb" x="236.072101" y="175.627433" style="fill: #1f77b4; fill-opacity: 0.8"/>
    </g>
    <g clip-path="url(#paeaf78d853)">
     <use xlink:href="#C0_0_37007ea9cb" x="284.35393" y="173.446114" style="fill: #1f77b4; fill-opacity: 0.8"/>
    </g>
    <g clip-path="url(#paeaf78d853)">
     <use xlink:href="#C0_0_37007ea9cb" x="146.405846" y="173.083817" style="fill: #1f77b4; fill-opacity: 0.8"/>
    </g>
    <g clip-path="url(#paeaf78d853)">
     <use xlink:href="#C0_0_37007ea9cb" x="298.148739" y="173.025168" style="fill: #1f77b4; fill-opacity: 0.8"/>
    </g>
    <g clip-path="url(#paeaf78d853)">
     <use xlink:href="#C0_0_37007ea9cb" x="132.611038" y="172.551903" style="fill: #1f77b4; fill-opacity: 0.8"/>
    </g>
    <g clip-path="url(#paeaf78d853)">
     <use xlink:href="#C0_0_37007ea9cb" x="208.482484" y="169.372017" style="fill: #1f77b4; fill-opacity: 0.8"/>
    </g>
    <g clip-path="url(#paeaf78d853)">
     <use xlink:href="#C0_0_37007ea9cb" x="311.943547" y="168.947295" style="fill: #1f77b4; fill-opacity: 0.8"/>
    </g>
    <g clip-path="url(#paeaf78d853)">
     <use xlink:href="#C0_0_37007ea9cb" x="118.81623" y="168.341358" style="fill: #1f77b4; fill-opacity: 0.8"/>
    </g>
    <g clip-path="url(#paeaf78d853)">
     <use xlink:href="#C0_0_37007ea9cb" x="194.687676" y="163.593905" style="fill: #1f77b4; fill-opacity: 0.8"/>
    </g>
    <g clip-path="url(#paeaf78d853)">
     <use xlink:href="#C0_0_37007ea9cb" x="246.418207" y="161.676183" style="fill: #1f77b4; fill-opacity: 0.8"/>
    </g>
    <g clip-path="url(#paeaf78d853)">
     <use xlink:href="#C0_0_37007ea9cb" x="225.725995" y="160.209479" style="fill: #1f77b4; fill-opacity: 0.8"/>
    </g>
    <g clip-path="url(#paeaf78d853)">
     <use xlink:href="#C0_0_37007ea9cb" x="180.892867" y="155.68814" style="fill: #1f77b4; fill-opacity: 0.8"/>
    </g>
    <g clip-path="url(#paeaf78d853)">
     <use xlink:href="#C0_0_37007ea9cb" x="260.213016" y="151.685098" style="fill: #1f77b4; fill-opacity: 0.8"/>
    </g>
    <g clip-path="url(#paeaf78d853)">
     <use xlink:href="#C0_0_37007ea9cb" x="211.931186" y="150.461494" style="fill: #1f77b4; fill-opacity: 0.8"/>
    </g>
    <g clip-path="url(#paeaf78d853)">
     <use xlink:href="#C0_0_37007ea9cb" x="167.098059" y="148.418918" style="fill: #1f77b4; fill-opacity: 0.8"/>
    </g>
    <g clip-path="url(#paeaf78d853)">
     <use xlink:href="#C0_0_37007ea9cb" x="236.072101" y="147.997568" style="fill: #1f77b4; fill-opacity: 0.8"/>
    </g>
    <g clip-path="url(#paeaf78d853)">
     <use xlink:href="#C0_0_37007ea9cb" x="198.136378" y="145.419839" style="fill: #1f77b4; fill-opacity: 0.8"/>
    </g>
    <g clip-path="url(#paeaf78d853)">
     <use xlink:href="#C0_0_37007ea9cb" x="274.007824" y="144.856646" style="fill: #1f77b4; fill-opacity: 0.8"/>
    </g>
    <g clip-path="url(#paeaf78d853)">
     <use xlink:href="#C0_0_37007ea9cb" x="153.303251" y="142.864493" style="fill: #1f77b4; fill-opacity: 0.8"/>
    </g>
    <g clip-path="url(#paeaf78d853)">
     <use xlink:href="#C0_0_37007ea9cb" x="222.277293" y="137.079777" style="fill: #1f77b4; fill-opacity: 0.8"/>
    </g>
    <g clip-path="url(#paeaf78d853)">
     <use xlink:href="#C0_0_37007ea9cb" x="184.341569" y="136.293842" style="fill: #1f77b4; fill-opacity: 0.8"/>
    </g>
    <g clip-path="url(#paeaf78d853)">
     <use xlink:href="#C0_0_37007ea9cb" x="208.482484" y="128.162095" style="fill: #1f77b4; fill-opacity: 0.8"/>
    </g>
    <g clip-path="url(#paeaf78d853)">
     <use xlink:href="#C0_0_37007ea9cb" x="222.277293" y="117.345027" style="fill: #1f77b4; fill-opacity: 0.8"/>
    </g>
    <g clip-path="url(#paeaf78d853)">
     <use xlink:href="#C0_0_37007ea9cb" x="236.072101" y="116.779268" style="fill: #1f77b4; fill-opacity: 0.8"/>
    </g>
    <g clip-path="url(#paeaf78d853)">
     <use xlink:href="#C0_0_37007ea9cb" x="198.136378" y="115.569556" style="fill: #1f77b4; fill-opacity: 0.8"/>
    </g>
    <g clip-path="url(#paeaf78d853)">
     <use xlink:href="#C0_0_37007ea9cb" x="184.341569" y="108.920156" style="fill: #1f77b4; fill-opacity: 0.8"/>
    </g>
    <g clip-path="url(#paeaf78d853)">
     <use xlink:href="#C0_0_37007ea9cb" x="249.866909" y="108.773191" style="fill: #1f77b4; fill-opacity: 0.8"/>
    </g>
    <g clip-path="url(#paeaf78d853)">
     <use xlink:href="#C0_0_37007ea9cb" x="170.546761" y="108.17925" style="fill: #1f77b4; fill-opacity: 0.8"/>
    </g>
    <g clip-path="url(#paeaf78d853)">
     <use xlink:href="#C0_0_37007ea9cb" x="263.661718" y="107.179468" style="fill: #1f77b4; fill-opacity: 0.8"/>
    </g>
    <g clip-path="url(#paeaf78d853)">
     <use xlink:href="#C0_0_37007ea9cb" x="156.751953" y="107.173265" style="fill: #1f77b4; fill-opacity: 0.8"/>
    </g>
    <g clip-path="url(#paeaf78d853)">
     <use xlink:href="#C0_0_37007ea9cb" x="277.456526" y="105.847595" style="fill: #1f77b4; fill-opacity: 0.8"/>
    </g>
    <g clip-path="url(#paeaf78d853)">
     <use xlink:href="#C0_0_37007ea9cb" x="215.379888" y="99.267772" style="fill: #1f77b4; fill-opacity: 0.8"/>
    </g>
    <g clip-path="url(#paeaf78d853)">
     <use xlink:href="#C0_0_37007ea9cb" x="229.174697" y="89.485408" style="fill: #1f77b4; fill-opacity: 0.8"/>
    </g>
    <g clip-path="url(#paeaf78d853)">
     <use xlink:href="#C0_0_37007ea9cb" x="215.379888" y="73.556975" style="fill: #1f77b4; fill-opacity: 0.8"/>
    </g>
    <g clip-path="url(#paeaf78d853)">
     <use xlink:href="#C0_0_37007ea9cb" x="225.725995" y="59.895077" style="fill: #1f77b4; fill-opacity: 0.8"/>
    </g>
    <g clip-path="url(#paeaf78d853)">
     <use xlink:href="#C0_0_37007ea9cb" x="208.482484" y="56.627143" style="fill: #1f77b4; fill-opacity: 0.8"/>
    </g>
    <g clip-path="url(#paeaf78d853)">
     <use xlink:href="#C0_0_37007ea9cb" x="218.82859" y="42.190364" style="fill: #1f77b4; fill-opacity: 0.8"/>
    </g>
   </g>
   <g id="LineCollection_1">
    <path d="M 179.306464 206.745414 
L 255.177911 206.745414 
" clip-path="url(#paeaf78d853)" style="fill: none; stroke: #1f77b4; stroke-opacity: 0.85; stroke-width: 1.4"/>
   </g>
   <g id="patch_3">
    <path d="M 49.842188 289.949813 
L 49.842188 23.837813 
" style="fill: none; stroke: #2a2f3a; stroke-width: 0.8; stroke-linejoin: miter; stroke-linecap: square"/>
   </g>
   <g id="patch_4">
    <path d="M 49.842187 289.949812 
L 384.642188 289.949812 
" style="fill: none; stroke: #2a2f3a; stroke-width: 0.8; stroke-linejoin: miter; stroke-linecap: square"/>
   </g>
   <g id="text_12">
    <!-- query-proof-generation on ios -->
    <g style="fill: #111827" transform="translate(113.182812 17.837812) scale(0.14 -0.14)">
     <defs>
      <path id="DejaVuSans-71" d="M 947 1747 
Q 947 1113 1208 752 
Q 1469 391 1925 391 
Q 2381 391 2643 752 
Q 2906 1113 2906 1747 
Q 2906 2381 2643 2742 
Q 2381 3103 1925 3103 
Q 1469 3103 1208 2742 
Q 947 2381 947 1747 
z
M 2906 525 
Q 2725 213 2448 61 
Q 2172 -91 1784 -91 
Q 1150 -91 751 415 
Q 353 922 353 1747 
Q 353 2572 751 3078 
Q 1150 3584 1784 3584 
Q 2172 3584 2448 3432 
Q 2725 3281 2906 2969 
L 2906 3500 
L 3481 3500 
L 3481 -1331 
L 2906 -1331 
L 2906 525 
z
" transform="scale(0.015625)"/>
      <path id="DejaVuSans-72" d="M 2631 2963 
Q 2534 3019 2420 3045 
Q 2306 3072 2169 3072 
Q 1681 3072 1420 2755 
Q 1159 2438 1159 1844 
L 1159 0 
L 581 0 
L 581 3500 
L 1159 3500 
L 1159 2956 
Q 1341 3275 1631 3429 
Q 1922 3584 2338 3584 
Q 2397 3584 2469 3576 
Q 2541 3569 2628 3553 
L 2631 2963 
z
" transform="scale(0.015625)"/>
      <path id="DejaVuSans-79" d="M 2059 -325 
Q 1816 -950 1584 -1140 
Q 1353 -1331 966 -1331 
L 506 -1331 
L 506 -850 
L 844 -850 
Q 1081 -850 1212 -737 
Q 1344 -625 1503 -206 
L 1606 56 
L 191 3500 
L 800 3500 
L 1894 763 
L 2988 3500 
L 3597 3500 
L 2059 -325 
z
" transform="scale(0.015625)"/>
      <path id="DejaVuSans-2d" d="M 313 2009 
L 1997 2009 
L 1997 1497 
L 313 1497 
L 313 2009 
z
" transform="scale(0.015625)"/>
      <path id="DejaVuSans-70" d="M 1159 525 
L 1159 -1331 
L 581 -1331 
L 581 3500 
L 1159 3500 
L 1159 2969 
Q 1341 3281 1617 3432 
Q 1894 3584 2278 3584 
Q 2916 3584 3314 3078 
Q 3713 2572 3713 1747 
Q 3713 922 3314 415 
Q 2916 -91 2278 -91 
Q 1894 -91 1617 61 
Q 1341 213 1159 525 
z
M 3116 1747 
Q 3116 2381 2855 2742 
Q 2594 3103 2138 3103 
Q 1681 3103 1420 2742 
Q 1159 2381 1159 1747 
Q 1159 1113 1420 752 
Q 1681 391 2138 391 
Q 2594 391 2855 752 
Q 3116 1113 3116 1747 
z
" transform="scale(0.015625)"/>
      <path id="DejaVuSans-66" d="M 2375 4863 
L 2375 4384 
L 1825 4384 
Q 1516 4384 1395 4259 
Q 1275 4134 1275 3809 
L 1275 3500 
L 2222 3500 
L 2222 3053 
L 1275 3053 
L 1275 0 
L 697 0 
L 697 3053 
L 147 3053 
L 147 3500 
L 697 3500 
L 697 3744 
Q 697 4328 969 4595 
Q 1241 4863 1831 4863 
L 2375 4863 
z
" transform="scale(0.015625)"/>
      <path id="DejaVuSans-67" d="M 2906 1791 
Q 2906 2416 2648 2759 
Q 2391 3103 1925 3103 
Q 1463 3103 1205 2759 
Q 947 2416 947 1791 
Q 947 1169 1205 825 
Q 1463 481 1925 481 
Q 2391 481 2648 825 
Q 2906 1169 2906 1791 
z
M 3481 434 
Q 3481 -459 3084 -895 
Q 2688 -1331 1869 -1331 
Q 1566 -1331 1297 -1286 
Q 1028 -1241 775 -1147 
L 775 -588 
Q 1028 -725 1275 -790 
Q 1522 -856 1778 -856 
Q 2344 -856 2625 -561 
Q 2906 -266 2906 331 
L 2906 616 
Q 2728 306 2450 153 
Q 2172 0 1784 0 
Q 1141 0 747 490 
Q 353 981 353 1791 
Q 353 2603 747 3093 
Q 1141 3584 1784 3584 
Q 2172 3584 2450 3431 
Q 2728 3278 2906 2969 
L 2906 3500 
L 3481 3500 
L 3481 434 
z
" transform="scale(0.015625)"/>
      <path id="DejaVuSans-61" d="M 2194 1759 
Q 1497 1759 1228 1600 
Q 959 1441 959 1056 
Q 959 750 1161 570 
Q 1363 391 1709 391 
Q 2188 391 2477 730 
Q 2766 1069 2766 1631 
L 2766 1759 
L 2194 1759 
z
M 3341 1997 
L 3341 0 
L 2766 0 
L 2766 531 
Q 2569 213 2275 61 
Q 1981 -91 1556 -91 
Q 1019 -91 701 211 
Q 384 513 384 1019 
Q 384 1609 779 1909 
Q 1175 2209 1959 2209 
L 2766 2209 
L 2766 2266 
Q 2766 2663 2505 2880 
Q 2244 3097 1772 3097 
Q 1472 3097 1187 3025 
Q 903 2953 641 2809 
L 641 3341 
Q 956 3463 1253 3523 
Q 1550 3584 1831 3584 
Q 2591 3584 2966 3190 
Q 3341 2797 3341 1997 
z
" transform="scale(0.015625)"/>
     </defs>
     <use xlink:href="#DejaVuSans-71"/>
     <use xlink:href="#DejaVuSans-75" transform="translate(63.476562 0)"/>
     <use xlink:href="#DejaVuSans-65" transform="translate(126.855469 0)"/>
     <use xlink:href="#DejaVuSans-72" transform="translate(188.378906 0)"/>
     <use xlink:href="#DejaVuSans-79" transform="translate(229.492188 0)"/>
     <use xlink:href="#DejaVuSans-2d" transform="translate(286.921875 0)"/>
     <use xlink:href="#DejaVuSans-70" transform="translate(323.005859 0)"/>
     <use xlink:href="#DejaVuSans-72" transform="translate(386.482422 0)"/>
     <use xlink:href="#DejaVuSans-6f" transform="translate(425.345703 0)"/>
     <use xlink:href="#DejaVuSans-6f" transform="translate(486.527344 0)"/>
     <use xlink:href="#DejaVuSans-66" transform="translate(547.708984 0)"/>
     <use xlink:href="#DejaVuSans-2d" transform="translate(577.414062 0)"/>
     <use xlink:href="#DejaVuSans-67" transform="translate(613.498047 0)"/>
     <use xlink:href="#DejaVuSans-65" transform="translate(676.974609 0)"/>
     <use xlink:href="#DejaVuSans-6e" transform="translate(738.498047 0)"/>
     <use xlink:href="#DejaVuSans-65" transform="translate(801.876953 0)"/>
     <use xlink:href="#DejaVuSans-72" transform="translate(863.400391 0)"/>
     <use xlink:href="#DejaVuSans-61" transform="translate(904.513672 0)"/>
     <use xlink:href="#DejaVuSans-74" transform="translate(965.792969 0)"/>
     <use xlink:href="#DejaVuSans-69" transform="translate(1005.001953 0)"/>
     <use xlink:href="#DejaVuSans-6f" transform="translate(1032.785156 0)"/>
     <use xlink:href="#DejaVuSans-6e" transform="translate(1093.966797 0)"/>
     <use xlink:href="#DejaVuSans-20" transform="translate(1157.345703 0)"/>
     <use xlink:href="#DejaVuSans-6f" transform="translate(1189.132812 0)"/>
     <use xlink:href="#DejaVuSans-6e" transform="translate(1250.314453 0)"/>
     <use xlink:href="#DejaVuSans-20" transform="translate(1313.693359 0)"/>
     <use xlink:href="#DejaVuSans-69" transform="translate(1345.480469 0)"/>
     <use xlink:href="#DejaVuSans-6f" transform="translate(1373.263672 0)"/>
     <use xlink:href="#DejaVuSans-73" transform="translate(1434.445312 0)"/>
    </g>
   </g>
  </g>
 </g>
 <defs>
  <clipPath id="paeaf78d853">
   <rect x="49.842188" y="23.837812" width="334.8" height="266.112"/>
  </clipPath>
 </defs>
</svg>
